<svg xmlns="http://www.w3.org/2000/svg" xmlns:xlink="http://www.w3.org/1999/xlink" style="font-family:'lucida grande','lucida sans unicode',arial,helvetica,sans-serif;font-size:12px" width="600" height="400" version="1.1"><desc>Created with Highcharts 4.2.0</desc><defs><clipPath id="highcharts-7"><rect width="580" height="334" x="0" y="0"/></clipPath></defs><g class="highcharts-series-group"><g class="highcharts-series highcharts-series-0"><path fill="#50B432" stroke="#FFF" stroke-linejoin="round" stroke-width="1" d="M 289.96802330701985 10.000003256397775 A 157 157 0 0 1 338.6107816499528 316.2849352995158 L 290 167 A 0 0 0 0 0 290 167 Z" transform="translate(10,10) scale(1 1) translate(0,0)"/><path fill="#ED561B" stroke="#FFF" stroke-linejoin="round" stroke-width="1" d="M 338.4614724341453 316.33347143060246 A 157 157 0 0 1 133.00002757220398 167.09304660815062 L 290 167 A 0 0 0 0 0 290 167 Z" transform="translate(10,10) scale(1 1) translate(0,0)"/><path fill="#DDDF00" stroke="#FFF" stroke-linejoin="round" stroke-width="1" d="M 133.000013025591 166.9360466153662 A 157 157 0 0 1 289.78193014972277 10.000151447396604 L 290 167 A 0 0 0 0 0 290 167 Z" transform="translate(10,10) scale(1 1) translate(0,0)"/></g></g><g class="highcharts-data-labels highcharts-series-0" opacity="1" visibility="visible"><path fill="none" stroke="#50B432" stroke-width="1" d="M 479.6977196912908 137.74675503747682 C 474.6977196912908 137.74675503747682 466.79621296652965 138.99823075779864 455.93164121998313 140.7190098732412 L 445.0670694734366 142.43978898868374" transform="translate(10,10) scale(1 1)"/><path fill="none" stroke="#ED561B" stroke-width="1" d="M 175.0841578213076 318.2861779481152 C 180.0841578213076 318.2861779481152 184.78643983964733 311.81404199311567 191.25207761486453 302.9148550549912 L 197.71771539008174 294.0156681168668" transform="translate(10,10) scale(1 1)"/><path fill="none" stroke="#DDDF00" stroke-width="1" d="M 152.7710319181156 34.771031918115625 C 157.7710319181156 34.771031918115625 163.42788616760794 40.42788616760801 171.20606076065997 48.20606076066003 L 178.984235353712 55.98423535371205" transform="translate(10,10) scale(1 1)"/><g style="cursor:pointer"><text x="5" y="15" transform="translate(10,10) scale(1 1) translate(485,128)" style="font-size:10px;font-weight:700;font-family:'arial',sans-serif;color:#000;text-shadow:0 0 6px #fff,0 0 3px #fff;fill:#000;text-rendering:geometricprecision"><tspan>ETH : 45</tspan></text></g><g style="cursor:pointer"><text x="5" y="15" transform="translate(10,10) scale(1 1) translate(117,308)" style="font-size:10px;font-weight:700;font-family:'arial',sans-serif;color:#000;text-shadow:0 0 6px #fff,0 0 3px #fff;fill:#000;text-rendering:geometricprecision"><tspan>MKR : 30</tspan></text></g><g style="cursor:pointer"><text x="5" y="15" transform="translate(10,10) scale(1 1) translate(96,25)" style="font-size:10px;font-weight:700;font-family:'arial',sans-serif;color:#000;text-shadow:0 0 6px #fff,0 0 3px #fff;fill:#000;text-rendering:geometricprecision"><tspan>GNT : 25</tspan></text></g></g><g class="highcharts-legend"><g><g><g class="highcharts-legend-item" transform="translate(203,356) translate(8,3)"><text x="21" y="15" text-anchor="start" style="color:#333;font-size:9pt;font-weight:400;cursor:pointer;font-family:'lucida grande','lucida sans unicode',arial,helvetica,sans-serif;text-transform:none;fill:#333">ETH</text><rect width="16" height="12" x="0" y="4" fill="#50B432"/></g><g class="highcharts-legend-item" transform="translate(203,356) translate(72.078125,3)"><text x="21" y="15" text-anchor="start" style="color:#333;font-size:9pt;font-weight:400;cursor:pointer;font-family:'lucida grande','lucida sans unicode',arial,helvetica,sans-serif;text-transform:none;fill:#333">MKR</text><rect width="16" height="12" x="0" y="4" fill="#ED561B"/></g><g class="highcharts-legend-item" transform="translate(203,356) translate(139.234375,3)"><text x="21" y="15" text-anchor="start" style="color:#333;font-size:9pt;font-weight:400;cursor:pointer;font-family:'lucida grande','lucida sans unicode',arial,helvetica,sans-serif;text-transform:none;fill:#333">GNT</text><rect width="16" height="12" x="0" y="4" fill="#DDDF00"/></g></g></g></g><g class="highcharts-tooltip" style="cursor:default;padding:0;pointer-events:none;white-space:nowrap"><path fill="none" stroke="#000" stroke-opacity=".05" stroke-width="5" d="M 3.5 0.5 L 13.5 0.5 C 16.5 0.5 16.5 0.5 16.5 3.5 L 16.5 13.5 C 16.5 16.5 16.5 16.5 13.5 16.5 L 3.5 16.5 C 0.5 16.5 0.5 16.5 0.5 13.5 L 0.5 3.5 C 0.5 0.5 0.5 0.5 3.5 0.5" transform="translate(0,-9999) translate(1, 1)"/><path fill="none" stroke="#000" stroke-opacity=".1" stroke-width="3" d="M 3.5 0.5 L 13.5 0.5 C 16.5 0.5 16.5 0.5 16.5 3.5 L 16.5 13.5 C 16.5 16.5 16.5 16.5 13.5 16.5 L 3.5 16.5 C 0.5 16.5 0.5 16.5 0.5 13.5 L 0.5 3.5 C 0.5 0.5 0.5 0.5 3.5 0.5" transform="translate(0,-9999) translate(1, 1)"/><path fill="none" stroke="#000" stroke-opacity=".15" stroke-width="1" d="M 3.5 0.5 L 13.5 0.5 C 16.5 0.5 16.5 0.5 16.5 3.5 L 16.5 13.5 C 16.5 16.5 16.5 16.5 13.5 16.5 L 3.5 16.5 C 0.5 16.5 0.5 16.5 0.5 13.5 L 0.5 3.5 C 0.5 0.5 0.5 0.5 3.5 0.5" transform="translate(0,-9999) translate(1, 1)"/><path fill="#F9F9F9" fill-opacity=".85" d="M 3.5 0.5 L 13.5 0.5 C 16.5 0.5 16.5 0.5 16.5 3.5 L 16.5 13.5 C 16.5 16.5 16.5 16.5 13.5 16.5 L 3.5 16.5 C 0.5 16.5 0.5 16.5 0.5 13.5 L 0.5 3.5 C 0.5 0.5 0.5 0.5 3.5 0.5" transform="translate(0,-9999)"/></g><text x="590" y="395" text-anchor="end" style="cursor:pointer;color:#909090;font-size:9px;fill:#909090">meta-chart.com</text></svg>